HIERARCHY
ROOT __0
{
	OFFSET 0.0 0.0 0.0
	CHANNELS 0
	JOINT spine
	{
		OFFSET 0.000000 -0.014402 0.264660
		CHANNELS 6 Xposition Yposition Zposition Xrotation Yrotation Zrotation
		JOINT spine top
		{
			OFFSET -0.000000 0.058246 0.209758
			CHANNELS 3 Xrotation Yrotation Zrotation
			JOINT NeckBot
			{
				OFFSET 0.000000 -0.034711 0.125681
				CHANNELS 3 Xrotation Yrotation Zrotation
				JOINT NeckTop
				{
					OFFSET -0.000000 -0.014527 0.216432
					CHANNELS 3 Xrotation Yrotation Zrotation
					End Site
					{
						OFFSET 0.000000 0.018502 0.278669
					}
				}
			}
			JOINT ArmStartTop.L
			{
				OFFSET 0.016245 -0.034711 0.119841
				CHANNELS 6 Xposition Yposition Zposition Xrotation Yrotation Zrotation
				JOINT ArmMidTop.L
				{
					OFFSET 0.044463 0.000000 -0.029495
					CHANNELS 3 Xrotation Yrotation Zrotation
					JOINT ArmEndTop.L
					{
						OFFSET 0.393913 -0.000000 -0.000000
						CHANNELS 3 Xrotation Yrotation Zrotation
						End Site
						{
							OFFSET 0.461072 0.000000 0.000000
						}
					}
				}
			}
			JOINT ArmStart.R
			{
				OFFSET -0.016272 -0.034711 0.121166
				CHANNELS 6 Xposition Yposition Zposition Xrotation Yrotation Zrotation
				JOINT ArmMid.R
				{
					OFFSET -0.042500 0.000000 -0.029253
					CHANNELS 3 Xrotation Yrotation Zrotation
					JOINT ArmEnd.R
					{
						OFFSET -0.393079 -0.000000 0.000000
						CHANNELS 3 Xrotation Yrotation Zrotation
						End Site
						{
							OFFSET -0.483935 -0.000000 0.000000
						}
					}
				}
			}
		}
		JOINT ArmStartBot.L
		{
			OFFSET 0.038272 0.023939 0.230171
			CHANNELS 6 Xposition Yposition Zposition Xrotation Yrotation Zrotation
			JOINT ArmMidBot.L
			{
				OFFSET 0.048653 0.000000 -0.026886
				CHANNELS 3 Xrotation Yrotation Zrotation
				JOINT ArmEndBot.L
				{
					OFFSET 0.367740 -0.000000 -0.000000
					CHANNELS 3 Xrotation Yrotation Zrotation
					End Site
					{
						OFFSET 0.466508 -0.000000 -0.000000
					}
				}
			}
		}
		JOINT spider thingy.L
		{
			OFFSET 0.025407 0.014563 0.059552
			CHANNELS 6 Xposition Yposition Zposition Xrotation Yrotation Zrotation
			JOINT Bone.016
			{
				OFFSET 0.041396 -0.045012 0.007200
				CHANNELS 3 Xrotation Yrotation Zrotation
				End Site
				{
					OFFSET 0.011846 -0.065345 0.009206
				}
			}
		}
		JOINT spider thingy.R
		{
			OFFSET -0.027532 0.007880 0.057875
			CHANNELS 6 Xposition Yposition Zposition Xrotation Yrotation Zrotation
			JOINT Bone.018
			{
				OFFSET -0.037885 -0.045958 0.008877
				CHANNELS 3 Xrotation Yrotation Zrotation
				End Site
				{
					OFFSET -0.005129 -0.065345 0.009206
				}
			}
		}
	}
	JOINT pelvis top
	{
		OFFSET 0.000000 -0.014402 0.264660
		CHANNELS 6 Xposition Yposition Zposition Xrotation Yrotation Zrotation
		JOINT pelvis.L
		{
			OFFSET -0.000000 0.000000 -0.102221
			CHANNELS 3 Xrotation Yrotation Zrotation
			JOINT leg.L
			{
				OFFSET 0.092417 0.000000 -0.033701
				CHANNELS 3 Xrotation Yrotation Zrotation
				JOINT foot.L
				{
					OFFSET 0.022013 0.000000 -0.396427
					CHANNELS 3 Xrotation Yrotation Zrotation
					End Site
					{
						OFFSET -0.022013 0.000000 -0.207485
					}
				}
			}
		}
		JOINT pelvis.R
		{
			OFFSET 0.000000 0.000000 -0.102221
			CHANNELS 3 Xrotation Yrotation Zrotation
			JOINT Leg.R
			{
				OFFSET -0.089835 -0.000000 -0.034513
				CHANNELS 3 Xrotation Yrotation Zrotation
				JOINT foot.R
				{
					OFFSET -0.009175 0.000000 -0.383270
					CHANNELS 3 Xrotation Yrotation Zrotation
					End Site
					{
						OFFSET 0.009178 0.000000 -0.226021
					}
				}
			}
		}
	}
}
MOTION
Frames: 4
Frame Time: 0.041667
0.000000 -0.014402 0.264660 103.109594 0.000000 -0.000000 13.523415 -0.000000 0.000000 27.614127 -0.000000 -0.000000 -61.936825 -0.447695 4.402477 0.016245 -0.034711 0.119841 -3.107618 -9.563722 10.888385 -28.361189 25.386539 -41.200268 -6.523210 -8.164930 -49.630320 -0.016272 -0.034711 0.121166 6.992723 8.152209 -11.001141 -17.901333 -31.724115 39.378479 -17.145916 13.818284 58.145168 0.038272 0.023939 0.230171 -0.000001 0.000001 0.000000 23.966408 15.096555 -37.967908 -12.157496 -28.076983 -56.878786 0.025407 0.014563 0.059552 -0.000001 0.000000 0.000002 0.000001 -0.000001 -0.000001 -0.027532 0.007880 0.057875 0.000002 -0.000000 -0.000000 -0.000000 0.000001 0.000002 0.000000 -0.014402 0.264660 32.345566 0.000000 -0.000000 13.953778 0.000002 0.000000 -32.457872 0.436747 -0.726444 48.882670 0.490424 -0.008981 13.953784 0.000005 0.000000 -11.720705 0.436748 -0.726442 48.882670 0.490426 -0.008979 
0.000000 -0.014402 0.264660 103.129108 0.000000 -0.000000 13.667296 -0.011331 0.007977 27.733426 0.000000 -0.000000 -61.863981 -0.501176 4.424339 0.016245 -0.034711 0.119841 -3.107617 -9.563721 10.888384 -28.177974 25.383138 -41.202467 -6.299267 -8.078838 -49.590305 -0.016272 -0.034711 0.121166 6.992724 8.152208 -11.001141 -17.850928 -31.717134 39.387119 -17.019735 13.821461 58.114248 0.038272 0.023939 0.230171 -0.000002 0.000001 0.000000 24.105505 15.096552 -37.967898 -12.117296 -28.074106 -56.872168 0.025407 0.014563 0.059552 -0.000001 0.000000 0.000002 -0.000001 -0.000000 -0.000003 -0.027532 0.007880 0.057875 0.000001 -0.000000 -0.000000 0.000001 0.000000 0.000002 0.000000 -0.014402 0.264660 32.345566 0.000000 -0.000000 13.953778 0.000002 0.000000 -32.451093 0.436696 -0.726396 49.073229 0.493106 -0.009851 13.953784 0.000005 0.000000 -11.771731 0.436765 -0.726465 49.046342 0.492730 -0.009725 
0.000000 -0.014402 0.264660 103.182684 0.000000 -0.000000 14.061870 -0.042302 0.029998 28.060560 0.000000 -0.000000 -61.657047 -0.647413 4.484678 0.016245 -0.034711 0.119841 -3.107613 -9.563722 10.888384 -27.654703 25.370485 -41.219433 -5.679465 -7.830420 -49.476661 -0.016272 -0.034711 0.121166 6.992724 8.152215 -11.001139 -17.693199 -31.695602 39.415055 -16.666893 13.821219 58.021829 0.038272 0.023939 0.230171 -0.000001 0.000001 0.000000 24.501053 15.096557 -37.967891 -11.995339 -28.057688 -56.847552 0.025407 0.014563 0.059552 0.000000 0.000000 0.000002 -0.000002 -0.000001 -0.000005 -0.027532 0.007880 0.057875 0.000001 -0.000000 -0.000000 -0.000000 -0.000000 -0.000002 0.000000 -0.014402 0.264660 32.345566 0.000000 -0.000000 13.953778 0.000002 0.000000 -32.415306 0.436559 -0.726270 49.595831 0.500445 -0.012281 13.953784 0.000005 0.000000 -11.929561 0.436810 -0.726525 49.495574 0.499040 -0.011807 
0.000000 -0.014402 0.264660 103.262700 0.000000 -0.000000 14.651529 -0.088300 0.063302 28.549392 0.000000 -0.000000 -61.333419 -0.864969 4.575946 0.016245 -0.034711 0.119841 -3.107620 -9.563716 10.888384 -26.831071 25.344583 -41.266476 -4.742137 -7.433512 -49.300794 -0.016272 -0.034711 0.121166 6.992719 8.152212 -11.001142 -17.418442 -31.658497 39.465140 -16.125879 13.802433 57.868539 0.038272 0.023939 0.230171 0.000000 0.000001 0.000000 25.120480 15.096557 -37.967901 -11.789627 -28.015995 -56.797913 0.025407 0.014563 0.059552 -0.000000 0.000000 0.000002 0.000001 -0.000001 -0.000001 -0.027532 0.007880 0.057875 0.000003 -0.000000 -0.000000 0.000001 0.000000 0.000001 0.000000 -0.014402 0.264660 32.345566 0.000000 -0.000000 13.953778 0.000002 0.000000 -32.327354 0.436368 -0.726092 50.376921 0.511374 -0.016038 13.953784 0.000005 0.000000 -12.201334 0.436874 -0.726608 50.167644 0.508452 -0.015014 
